<svg xmlns="http://www.w3.org/2000/svg" width="40" height="40" viewBox="0 0 40 40" fill="none">
  <defs>
    <linearGradient id="bg" x1="0" y1="0" x2="40" y2="40" gradientUnits="userSpaceOnUse">
      <stop offset="0%" stop-color="#003c89"/>
      <stop offset="100%" stop-color="#0066e6"/>
    </linearGradient>
    <linearGradient id="bolt" x1="16" y1="6" x2="24" y2="34" gradientUnits="userSpaceOnUse">
      <stop offset="0%" stop-color="#ffffff"/>
      <stop offset="100%" stop-color="#a3c2ff"/>
    </linearGradient>
  </defs>
  <rect width="40" height="40" rx="10" fill="url(#bg)"/>
  <!-- Wrench shape -->
  <path d="M13 12 L17 16 L15 18 L11 14 C9.5 15.5 9.5 18 11 19.5 C12.5 21 15 21 16.5 19.5 L18 18 L26 26 C27 27 28.5 27 29.5 26 C30.5 25 30.5 23.5 29.5 22.5 L21.5 14.5 L23 13 C24.5 11.5 24.5 9 23 7.5 C21.5 6 19 6 17.5 7.5 L13 12Z" fill="url(#bolt)" opacity="0.95"/>
  <!-- Bolt accent -->
  <path d="M22 18 L19 23 H22 L20 28" stroke="#fbbf24" stroke-width="2" stroke-linecap="round" stroke-linejoin="round" fill="none"/>
</svg>